# xmcd
#
# Track frame offsets:
#	150
#	14931
#	29856
#	42486
#	55929
#	68787
#	82766
#	97646
#	109549
#	125137
#	137031
#	147702
#	160453
#	172978
#	186581
#	200756
#	212811
#	225796
#
# Disc length: 3177 seconds
#
# Revision: 0
# Processed by: cddbd v1.5.2PL0 Copyright (c) Steve Scherf et al.
# Submitted via: dBpowerAMP V4.0
#
DISCID=0d0c6712
DTITLE=Sydney Devine /Tommy Scott - You Can Dance
DYEAR=1900
DGENRE=Country
TTITLE0=It Had To Be You
TTITLE1=I'll Be Seeing You
TTITLE2=Don't Get Around Much Anymore
TTITLE3=You Belong To Me
TTITLE4=Embraceable You
TTITLE5=Carolina Moon. Tennesse Waltz
TTITLE6=That Old Feeling
TTITLE7=Knee Deep In The Blues
TTITLE8=You'll Never Know
TTITLE9=Sway
TTITLE10=Isle Capri
TTITLE11=I'll See You In My Dreams
TTITLE12=May I Have The Next Dream With You
TTITLE13=Time After Time
TTITLE14=There I've Said It Again
TTITLE15=Let The Rest Of The World Go By/ Now  Is The Hour
TTITLE16=How Wonderful To Know/ Yours
TTITLE17=Rock Around The Clock/ Chantilly Lace
EXTD=
EXTT0=
EXTT1=
EXTT2=
EXTT3=
EXTT4=
EXTT5=
EXTT6=
EXTT7=
EXTT8=
EXTT9=
EXTT10=
EXTT11=
EXTT12=
EXTT13=
EXTT14=
EXTT15=
EXTT16=
EXTT17=
PLAYORDER=
